<svg xmlns="http://www.w3.org/2000/svg" width="200" height="149" viewBox="0 0 200 149" version="1.1">
	<path d="M 101.195 9.607 C 99.378 10.401, 97.396 10.745, 96.791 10.371 C 96.127 9.960, 95.975 10.151, 96.409 10.853 C 96.825 11.526, 96.365 12.291, 95.313 12.673 C 93.113 13.473, 67.462 25.435, 64.110 27.224 C 62.754 27.948, 56.387 36.937, 49.395 48 C 42.617 58.725, 36.572 67.376, 35.961 67.225 C 35.351 67.074, 35.141 67.420, 35.496 67.993 C 35.850 68.567, 35.207 70.547, 34.066 72.393 C 31.723 76.184, 33.208 78.996, 36.737 77.453 C 37.707 77.029, 38.821 76.749, 39.214 76.829 C 39.607 76.910, 39.720 76.419, 39.465 75.738 C 39.210 75.057, 39.899 73.150, 40.994 71.500 L 42.987 68.500 42.993 102.750 L 43 137 45.250 137.129 C 46.487 137.200, 49.638 137.159, 52.250 137.037 C 55.661 136.878, 57.004 137.195, 57.015 138.158 C 57.027 139.177, 57.268 139.139, 58.015 138 C 58.891 136.667, 59.109 136.667, 59.985 138 C 60.643 139.003, 60.974 139.086, 60.985 138.250 C 60.993 137.531, 62.275 137, 64 137 C 65.725 137, 67.007 137.531, 67.015 138.250 C 67.027 139.165, 67.228 139.190, 67.766 138.344 C 68.250 137.584, 73.794 137.044, 84.001 136.766 C 101.569 136.286, 107.279 134.839, 119.304 127.820 C 144.918 112.869, 152.511 83.931, 136.148 63.631 C 134.433 61.503, 133.317 59.296, 133.669 58.726 C 134.021 58.157, 133.880 57.956, 133.355 58.281 C 132.830 58.605, 130.447 57.325, 128.060 55.435 C 122.700 51.194, 123.462 51.117, 131.525 55.087 C 142.466 60.473, 157.287 76.203, 155.590 80.626 C 155.278 81.439, 155.446 81.843, 155.962 81.523 C 158.612 79.886, 161.299 94.355, 161.761 112.750 L 162.219 131 141.636 131 C 121.024 131, 112 132.583, 112 136.199 C 112 136.640, 124.600 137, 140 137 L 168 137 168.022 102.250 L 168.044 67.500 171.105 72.750 C 174.236 78.122, 174.676 78.445, 177.418 77.393 C 180.045 76.385, 181.776 79.565, 158.119 41.931 C 152.991 33.775, 152.009 31.587, 153.119 30.796 C 154.182 30.038, 154.088 29.944, 152.712 30.389 C 151.667 30.726, 150.703 30.390, 150.392 29.580 C 150.100 28.817, 143.704 25.372, 136.180 21.924 C 128.656 18.475, 118.943 13.932, 114.596 11.827 C 105.816 7.576, 105.837 7.579, 101.195 9.607 M 70 10.927 C 70 11.436, 69.213 12.059, 68.250 12.311 C 66.933 12.655, 67.057 12.797, 68.750 12.884 C 70.135 12.955, 71 12.423, 71 11.500 C 71 10.675, 70.775 10, 70.500 10 C 70.225 10, 70 10.417, 70 10.927 M 98.204 17.336 C 94.741 19.117, 92.266 20.967, 92.704 21.447 C 93.146 21.931, 92.720 22.039, 91.747 21.689 C 89.671 20.945, 71.511 29.177, 72.671 30.337 C 73.093 30.760, 72.700 30.822, 71.798 30.476 C 67.770 28.930, 49.965 52.402, 52.790 55.534 C 53.180 55.966, 52.962 56.012, 52.304 55.635 C 51.522 55.186, 50.745 56.255, 50.060 58.724 C 48.810 63.223, 48.706 66, 49.786 66 C 50.218 66, 50.571 66.900, 50.571 68 C 50.571 69.100, 50.288 70, 49.942 70 C 49.595 70, 49.313 83.725, 49.316 100.500 L 49.320 131 69.910 130.988 L 90.500 130.975 93.231 124.238 C 96.484 116.209, 101.636 108.175, 108.604 100.262 C 114.069 94.056, 116.316 90.283, 117.397 85.500 L 118.076 82.500 115.521 85.679 C 111.808 90.299, 107.118 92.840, 101.467 93.293 C 94.594 93.845, 86.982 98.683, 83.125 104.952 C 79.474 110.886, 75.301 112.697, 69.119 111.032 C 62.472 109.242, 57.216 99.211, 59.871 93.384 C 60.506 91.990, 60.725 90.364, 60.358 89.771 C 59.983 89.164, 60.154 88.977, 60.748 89.344 C 62.440 90.390, 66.435 82.919, 64.808 81.750 C 63.847 81.061, 63.961 80.959, 65.235 81.368 C 67.584 82.123, 69.828 78.190, 67.853 76.778 C 66.806 76.030, 66.876 75.931, 68.166 76.342 C 70.219 76.996, 80.623 61.817, 79.437 59.898 C 79.001 59.193, 79.111 58.951, 79.702 59.316 C 81.810 60.619, 87.094 52.377, 85.998 49.496 C 84.957 46.758, 84.599 37, 85.540 37 C 85.837 37, 87.844 37.900, 90 39 C 92.156 40.100, 94.054 41, 94.217 41 C 94.381 41, 94.353 38.975, 94.157 36.500 C 93.960 34.025, 94.087 32, 94.439 32 C 97.625 32, 108 40.305, 108 42.855 C 108 43.241, 111.713 44.069, 116.250 44.694 C 133.999 47.140, 148.454 56.918, 158.832 73.500 L 161.962 78.500 161.981 68.455 L 162 58.410 156.129 48.955 C 152.899 43.755, 149.716 39.624, 149.054 39.775 C 148.393 39.926, 148.136 39.589, 148.483 39.027 C 150.305 36.079, 141.940 28.683, 138.906 30.558 C 138.203 30.992, 137.949 30.891, 138.303 30.318 C 139.124 28.991, 121.479 20.586, 119.909 21.556 C 119.213 21.986, 118.949 21.892, 119.292 21.336 C 119.821 20.481, 107.179 13.923, 105.245 14.049 C 104.835 14.075, 101.667 15.555, 98.204 17.336 M 26 19.927 C 26 20.436, 25.212 21.059, 24.250 21.311 C 22.933 21.655, 23.057 21.797, 24.750 21.884 C 26.135 21.955, 27 21.423, 27 20.500 C 27 19.675, 26.775 19, 26.500 19 C 26.225 19, 26 19.417, 26 19.927 M 100.450 46.033 L 101.090 51.566 97.529 52.853 C 95.427 53.614, 94.243 54.585, 94.639 55.225 C 95.051 55.891, 94.840 56.019, 94.091 55.557 C 92.602 54.636, 88.793 57.856, 89.678 59.288 C 90.028 59.854, 89.820 60.007, 89.210 59.630 C 88.221 59.018, 80.929 69.301, 72.638 83 C 71.140 85.475, 69.408 88.233, 68.789 89.128 C 67.902 90.411, 68.124 91.342, 69.832 93.513 C 71.024 95.029, 72 97.077, 72 98.063 C 72 99.050, 72.707 100.564, 73.571 101.429 C 74.436 102.293, 74.683 103, 74.121 103 C 73.559 103, 72.706 102.297, 72.225 101.437 C 71.431 100.019, 71.229 100.019, 70.052 101.437 C 68.074 103.821, 67 103.315, 67 100 C 67 98.350, 66.501 97, 65.892 97 C 64.155 97, 65.793 102.253, 68.153 104.250 C 72.606 108.017, 82.275 102.489, 79.392 97.825 C 78.982 97.162, 79.135 96.965, 79.761 97.352 C 80.349 97.716, 82.106 96.952, 83.665 95.655 C 85.224 94.358, 87.555 92.742, 88.844 92.063 C 91.175 90.836, 91.177 90.817, 89.243 88.665 C 84.688 83.595, 87.544 79.344, 92.425 83.929 C 102.759 93.638, 119.709 79.537, 112.931 66.870 C 112.152 65.416, 112.185 64.482, 113.053 63.436 C 119.985 55.084, 125.962 81.592, 119.899 93.795 C 118.066 97.483, 116.651 101.175, 116.754 102 C 116.884 103.035, 116.765 103.099, 116.374 102.208 C 115.928 101.195, 115.492 101.176, 114.355 102.120 C 113.181 103.094, 113.152 103.501, 114.203 104.256 C 115.164 104.947, 115.072 105.052, 113.844 104.662 C 111.806 104.013, 108.518 107.411, 109.557 109.091 C 110.021 109.844, 109.891 110.051, 109.217 109.634 C 107.273 108.433, 98.384 122.952, 99.416 125.642 C 99.725 126.446, 99.579 126.858, 99.093 126.558 C 98.170 125.987, 96.611 128.944, 97.413 129.746 C 98.434 130.768, 114.261 124.630, 119.692 121.107 C 149.276 101.915, 143.677 63.067, 109.732 52.001 C 105.728 50.696, 104.445 49.756, 103.904 47.732 C 102.176 41.273, 99.762 40.085, 100.450 46.033 M 16.393 58.471 C 16.755 60.937, 18 61.476, 18 59.167 C 18 57.975, 17.590 57, 17.088 57 C 16.587 57, 16.274 57.662, 16.393 58.471 M 95.110 65.081 C 90.080 66.069, 87.700 67.895, 85.957 72.104 C 84.620 75.331, 85.331 77.069, 87.217 75.183 C 87.867 74.532, 89.815 74, 91.545 74 C 94.627 74, 98 71.497, 98 69.210 C 98 68.587, 98.985 67.160, 100.189 66.039 C 102.606 63.787, 102.144 63.700, 95.110 65.081 M 57.015 68.250 C 57.005 69.426, 57.738 69.974, 59.250 69.921 C 60.753 69.868, 61.002 69.653, 60 69.271 C 59.175 68.957, 58.169 68.205, 57.765 67.600 C 57.312 66.922, 57.025 67.171, 57.015 68.250 M 70 67.927 C 70 68.436, 69.213 69.059, 68.250 69.311 C 66.933 69.655, 67.057 69.797, 68.750 69.884 C 70.135 69.955, 71 69.423, 71 68.500 C 71 67.675, 70.775 67, 70.500 67 C 70.225 67, 70 67.417, 70 67.927 M 19.600 81.765 C 20.205 82.169, 20.957 83.175, 21.271 84 C 21.653 85.002, 21.868 84.753, 21.921 83.250 C 21.974 81.738, 21.426 81.005, 20.250 81.015 C 19.171 81.025, 18.922 81.312, 19.600 81.765 M 28.116 83.250 C 28.198 84.844, 28.362 85.008, 28.677 83.811 C 28.923 82.883, 29.883 81.923, 30.811 81.677 C 32.008 81.362, 31.844 81.198, 30.250 81.116 C 28.518 81.027, 28.027 81.518, 28.116 83.250 M 127 82 C 128.939 83.253, 130 83.253, 130 82 C 130 81.450, 128.988 81.007, 127.750 81.015 C 125.931 81.028, 125.787 81.216, 127 82 M 77.079 88.250 C 77.132 89.753, 77.347 90.002, 77.729 89 C 78.043 88.175, 78.795 87.169, 79.400 86.765 C 80.078 86.312, 79.829 86.025, 78.750 86.015 C 77.574 86.005, 77.026 86.738, 77.079 88.250 M 174.015 92.750 C 174.025 93.829, 174.312 94.078, 174.765 93.400 C 175.169 92.795, 176.175 92.043, 177 91.729 C 178.002 91.347, 177.753 91.132, 176.250 91.079 C 174.738 91.026, 174.005 91.574, 174.015 92.750 M 28.116 100.750 C 28.027 102.482, 28.518 102.973, 30.250 102.884 C 31.844 102.802, 32.008 102.638, 30.811 102.323 C 29.883 102.077, 28.923 101.117, 28.677 100.189 C 28.362 98.992, 28.198 99.156, 28.116 100.750 M 174 101 C 174 102.333, 174.667 103, 176 103 C 177.333 103, 178 102.333, 178 101 C 178 99.667, 177.333 99, 176 99 C 174.667 99, 174 99.667, 174 101 M 198 101 C 198 103.192, 199.468 103.670, 200.595 101.845 C 201.070 101.077, 200.866 100.965, 199.985 101.510 C 199.023 102.104, 198.835 101.872, 199.299 100.664 C 199.650 99.749, 199.501 99, 198.969 99 C 198.436 99, 198 99.900, 198 101 M 9 110.500 C 9 111.875, 9.388 113, 9.861 113 C 10.335 113, 10.508 111.875, 10.245 110.500 C 9.982 109.125, 9.594 108, 9.383 108 C 9.173 108, 9 109.125, 9 110.500" stroke="none" fill="currentColor" fill-rule="evenodd"/>
</svg>