<svg xmlns="http://www.w3.org/2000/svg" viewBox="0 0 300 224">
  <path d="M 149.949 15.829 C 130.819 25.200, 121.981 28.930, 120.370 28.312 C 119.248 27.881, 118.909 28.044, 119.371 28.791 C 119.819 29.516, 116.609 31.550, 110.421 34.461 C 99.355 39.667, 99.292 39.681, 98.686 36.985 C 98.310 35.308, 98.256 35.350, 98.367 37.235 C 98.458 38.779, 97.318 40.369, 94.786 42.230 C 92.743 43.732, 90.359 46.339, 89.488 48.023 C 88.019 50.863, 85.421 55.028, 74.527 72 C 46.522 115.634, 47.608 113.585, 51.137 116.098 C 54.633 118.587, 54.368 118.790, 60.390 109.026 C 65 101.552, 65 101.552, 65 153.776 C 65 206, 65 206, 101.316 206 C 142.151 206, 145.542 205.637, 164 199.293 C 181.859 193.154, 202.898 175.466, 210.246 160.412 C 211.736 157.359, 212.781 156.374, 214.371 156.524 C 215.685 156.648, 215.830 156.559, 214.750 156.293 C 212.590 155.760, 212.552 154.315, 214.574 149.476 C 220.495 135.306, 215.470 109.087, 204.342 96.086 C 202.255 93.648, 201.157 91.521, 201.593 90.763 C 201.993 90.068, 201.968 89.818, 201.536 90.207 C 201.105 90.596, 197.910 88.571, 194.437 85.707 C 190.963 82.843, 187.082 79.704, 185.811 78.731 C 183.579 77.022, 183.636 77.017, 187.500 78.575 C 189.700 79.462, 193.075 80.765, 195 81.470 C 226.996 93.190, 242.976 124.084, 242.992 174.250 C 243 197, 243 197, 211.948 197 C 182.420 197, 162.987 200.321, 167.297 204.630 C 167.620 204.954, 205.777 205.154, 243.250 205.029 C 252 205, 252 205, 252 153.281 C 252 101.563, 252 101.563, 255.568 107.267 C 257.538 110.415, 258.812 113.495, 258.413 114.140 C 257.979 114.843, 258.124 115.042, 258.777 114.638 C 259.374 114.269, 260.526 114.913, 261.336 116.070 C 262.510 117.746, 263.184 117.959, 264.655 117.120 C 269.272 114.486, 269.313 114.408, 267.519 111.670 C 266.589 110.250, 266.161 108.549, 266.568 107.889 C 267.014 107.168, 266.886 106.952, 266.246 107.348 C 264.657 108.330, 253.821 90.701, 254.580 88.369 C 255.041 86.953, 254.950 86.835, 254.204 87.882 C 253.409 88.997, 252.940 88.803, 251.778 86.882 C 250.077 84.070, 236.028 61.681, 231.459 54.500 C 229.709 51.750, 227.427 48.007, 226.389 46.182 C 225.350 44.356, 223.041 42.169, 221.259 41.322 C 219.476 40.474, 218.262 39.385, 218.561 38.902 C 218.859 38.418, 218.495 38.257, 217.751 38.542 C 215.754 39.309, 196.823 30.096, 197.649 28.759 C 198.091 28.044, 197.723 27.892, 196.595 28.325 C 195.531 28.734, 191.700 27.495, 186.681 25.119 C 164.575 14.657, 158.784 12.005, 158.169 12.065 C 157.801 12.100, 154.102 13.794, 149.949 15.829 M 152.419 23.532 C 149.714 24.924, 143.934 27.649, 139.576 29.587 C 116.353 39.913, 108.152 44.232, 108.670 45.864 C 109.117 47.275, 109.041 47.293, 108.119 46 C 104.736 41.258, 77.187 74.741, 79.484 80.802 C 79.755 81.518, 79.539 81.833, 79.004 81.502 C 74.496 78.716, 74.008 84.649, 74.004 142.264 C 74 197.028, 74 197.028, 105.080 196.764 C 136.159 196.500, 136.159 196.500, 138.577 189.586 C 142.808 177.486, 152.299 162.607, 164.384 149.129 C 171.379 141.329, 175.456 133.997, 176.412 127.500 C 177 123.500, 177 123.500, 175.298 126 C 169.269 134.852, 160.156 140, 150.516 140 C 143.251 140, 125 152.160, 125 157 C 125 161.153, 115.573 167.226, 109.071 167.261 C 99.196 167.315, 93.694 162.900, 90.495 152.356 C 87.732 143.248, 87.759 143.152, 97.705 127.249 C 101.280 121.533, 103.801 116.487, 103.404 115.844 C 102.971 115.143, 103.130 114.962, 103.810 115.382 C 104.471 115.791, 106.032 114.322, 107.629 111.787 C 116.425 97.827, 127.001 82.253, 128.732 80.713 C 130.628 79.025, 130.657 78.691, 129.237 74.713 C 127.802 70.692, 126.207 55, 127.233 55 C 127.503 55, 130.935 56.766, 134.862 58.924 C 142 62.848, 142 62.848, 142 55.856 C 142 49.067, 142.065 48.885, 144.250 49.561 C 148.817 50.973, 153.591 53.919, 156.908 57.373 C 158.783 59.325, 160.765 60.645, 161.313 60.307 C 161.876 59.958, 161.997 60.196, 161.590 60.854 C 159.962 63.488, 162.023 66, 165.817 66.009 C 193.157 66.076, 225.743 86.944, 239.882 113.438 C 243 119.282, 243 119.282, 242.984 103.391 C 242.968 88.344, 242.838 87.288, 240.538 83.500 C 239.202 81.300, 237.348 78.166, 236.418 76.535 C 223.813 54.437, 211.531 40.773, 208.747 45.750 C 208.517 46.163, 208.442 45.997, 208.582 45.382 C 208.819 44.338, 201.331 40.364, 198.004 39.768 C 197.181 39.621, 196.056 38.966, 195.504 38.313 C 194.952 37.661, 188.875 34.636, 182 31.592 C 175.125 28.548, 167.286 24.920, 164.581 23.529 C 158.530 20.418, 158.469 20.418, 152.419 23.532 M 150.462 68.237 C 150.787 71.943, 151.314 75.656, 151.634 76.487 C 152.023 77.501, 151.602 78.003, 150.357 78.010 C 145.120 78.037, 131.394 86.980, 132.433 89.687 C 132.732 90.466, 132.569 90.851, 132.069 90.543 C 130.515 89.582, 107.556 125.472, 108.621 127.196 C 109.002 127.813, 108.860 128.031, 108.302 127.687 C 104.977 125.631, 100.994 136.841, 103.987 139.833 C 108.153 144, 108.075 148.291, 103.750 152.772 C 99.795 156.870, 101.433 159, 108.538 159 C 113.373 159, 115.479 157.421, 119.208 151 C 121.589 146.901, 126.766 142.321, 134.376 137.580 C 137.252 135.789, 137.252 135.789, 134.635 133.362 C 129.443 128.548, 128.593 125.411, 132.089 123.963 C 134.940 122.782, 135.334 122.915, 138.809 126.222 C 150.213 137.076, 168.351 130.196, 170.904 114.047 C 171.644 109.361, 171.422 107.058, 169.419 98.702 C 168.743 95.880, 170.827 93.109, 173.683 93.032 C 175.550 92.982, 181.627 105.356, 183.512 113.047 C 186.244 124.197, 183.736 136.743, 176.859 146.320 C 174.186 150.043, 174.046 152.604, 176.427 154.235 C 177.074 154.677, 176.805 154.975, 175.750 154.985 C 174.610 154.995, 174 154.235, 174 152.804 C 174 147.055, 156.231 169.935, 149.486 184.367 C 144.197 195.685, 144.108 196.253, 147.750 195.375 C 188.999 185.421, 213.577 156.099, 208.154 123.310 C 206.991 116.279, 202.111 105.380, 200.286 105.738 C 199.559 105.880, 199.314 105.345, 199.675 104.405 C 201.545 99.533, 177.082 81.661, 162.954 77.579 C 157.705 76.063, 157.346 75.750, 156.242 71.738 C 153.815 62.921, 149.780 60.478, 150.462 68.237 M 148 97.108 C 146.075 97.533, 142.803 98.154, 140.729 98.489 C 138.654 98.824, 135.457 100.416, 133.623 102.027 C 131.788 103.637, 129.926 104.627, 129.484 104.227 C 129.041 103.827, 129.005 104.065, 129.402 104.756 C 129.800 105.447, 129.561 107.573, 128.871 109.481 C 127.346 113.697, 128.109 114.737, 131.158 112.602 C 132.416 111.721, 135.338 111, 137.651 111 C 142.431 111, 144.543 109.380, 146.723 104.040 C 147.518 102.093, 149.137 99.743, 150.319 98.818 C 153.082 96.658, 152.381 96.141, 148 97.108" fill="#8b5e3c" fill-rule="evenodd" stroke="none"/>
</svg>
